<svg xmlns="http://www.w3.org/2000/svg" viewBox="0 0 1024 1024" role="img"><path d="M1024 64v896a64 64 0 01-64 64H64a64 64 0 01-64-64V64A64 64 0 0164 0h896a64 64 0 0164 64zM320.229 723.429c27.657 0 67.428 4.8 67.428 40.914 0 35.428-31.771 42.971-61.714 42.971-28.114 0-70.629-4.571-70.629-41.143s35.886-42.743 64.915-42.743zM263.77 456.914c0 33.829 15.086 55.086 50.972 55.086 35.428 0 48.457-22.857 48.457-56 .229-78.629-99.429-79.543-99.429.914zm209.372-133.028c-28.114 10.971-58.286 19.2-88.914 19.2-88-50.515-207.315 2.057-207.315 113.143 0 41.142 26.515 98.057 67.657 111.771v1.6c-30.628 13.486-39.085 82.514 1.6 107.429v1.6c-44.571 14.628-73.828 42.971-73.828 91.885 0 84.115 79.543 107.429 149.486 107.429 84.8 0 148.114-30.629 148.114-124.114 0-115.2-164.8-72.686-164.8-135.086 0-21.943 11.886-30.629 32.228-34.743 67.66-12.57 110.173-65.37 110.173-134.17a97.272 97.272 0 00-6.629-34.286 304.9 304.9 0 0032.229-8.914v-82.743zM602.97 328h-90.514c2.972 24.229 2.514 325.943 0 355.429h90.514c-2.514-29.258-2.742-331.658 0-355.429zm10.286-121.829c0-30.628-22.857-59.885-55.086-59.885-32.685 0-56.228 28.571-56.228 59.885 0 31.086 24 59.2 56.228 59.2 31.315 0 55.086-28.571 55.086-59.2zM851.657 328h-83.2c0-22.4-.914-44.8 2.514-67.429H678.4c2.971 16.686 2.514 31.086 2.514 67.429H641.83v77.486c27.2-4.343 27.657-1.6 39.085-1.6v1.6H680V548.8c0 71.086 10.286 139.886 97.6 139.886 24.457 0 52.571-4.115 74.286-16v-80c-13.029 8.914-31.772 13.485-47.772 13.485-30.171 0-35.428-29.485-35.428-53.485V403.657c51.885 0 83.2 1.6 83.2 1.6V328z"/></svg>